<svg xmlns="http://www.w3.org/2000/svg" version="1.0" width="32" height="32" viewBox="0 0 280.000000 280.000000" preserveAspectRatio="xMidYMid meet">

<g transform="translate(0.000000,280.000000) scale(0.100000,-0.100000)" fill="#ffffff" stroke="none">
<path d="M2525 2553 c-32 -8 -65 -44 -74 -82 -5 -20 -14 -83 -21 -141 -6 -58 -15 -139 -21 -180 -9 -71 -39 -389 -59 -625 -17 -195 -30 -318 -34 -322 -6 -7 -13 44 -46 377 -5 52 -17 154 -26 225 -9 72 -20 166 -25 210 -20 193 -60 375 -96 437 -61 104 -203 106 -270 4 -45 -70 -93 -314 -142 -736 -6 -52 -18 -149 -27 -215 -8 -66 -18 -146 -21 -179 -7 -68 -18 -57 -27 29 -9 78 -82 527 -96 591 -53 245 -145 343 -271 290 -101 -43 -135 -130 -214 -561 -14 -77 -30 -160 -35 -185 -5 -25 -12 -64 -15 -87 -7 -42 -25 -70 -25 -38 0 9 -9 49 -19 88 -96 355 -112 397 -176 456 -68 63 -156 68 -224 13 -38 -31 -95 -117 -110 -167 -5 -16 -21 -61 -36 -100 -15 -38 -38 -103 -52 -142 -14 -40 -28 -73 -31 -73 -4 0 -19 21 -34 45 -26 42 -30 45 -71 45 -29 0 -53 -7 -70 -20 -14 -11 -29 -20 -34 -20 -5 0 -23 -13 -41 -29 -50 -46 -44 -77 36 -196 88 -131 123 -158 207 -163 82 -5 114 8 169 69 44 49 82 127 137 284 27 76 28 78 38 51 6 -15 11 -33 11 -39 0 -21 71 -309 101 -408 54 -179 114 -249 213 -249 128 0 186 99 255 430 21 101 61 331 61 351 0 24 20 26 20 2 1 -22 12 -103 40 -293 12 -80 25 -175 30 -211 5 -36 16 -99 25 -140 8 -41 15 -88 15 -106 0 -17 4 -34 9 -37 4 -3 11 -24 15 -46 29 -185 140 -281 259 -224 96 46 142 213 207 744 6 52 15 122 20 155 5 33 12 93 15 134 6 68 23 137 25 101 2 -32 38 -385 70 -685 28 -255 71 -532 96 -605 25 -74 54 -111 101 -132 39 -17 51 -18 93 -8 94 23 142 117 171 340 4 36 13 97 18 135 12 87 30 249 41 380 5 55 14 144 19 197 6 54 15 151 20 215 6 65 17 183 25 263 9 80 20 199 26 265 6 66 18 173 26 238 21 180 20 207 -16 244 -37 38 -93 51 -155 36z"></path>
</g>
</svg>
